name C:\Users\antoi\Documents\MyRepositories\upper-imu-dc\Results\main_tracking\Case_79\ABD01_angularVelocities_bodyFrame.mot
datacolumns 4
datarows 129
range 7.88000000 9.16000000
endheader 
time	radius_imu_x	radius_imu_y	radius_imu_z	
          7.88000000	          1.36166122	          0.65413872	          0.33658950	
          7.89000000	          1.37735227	          0.64096644	          0.34524028	
          7.90000000	          1.39260694	          0.62487691	          0.35167511	
          7.91000000	          1.40726507	          0.60585694	          0.35568058	
          7.92000000	          1.42115838	          0.58394864	          0.35707263	
          7.93000000	          1.43411326	          0.55925668	          0.35570531	
          7.94000000	          1.44595840	          0.53195415	          0.35147849	
          7.95000000	          1.45653643	          0.50225194	          0.34434783	
          7.96000000	          1.46571800	          0.47036918	          0.33433525	
          7.97000000	          1.47340348	          0.43667063	          0.32152342	
          7.98000000	          1.47952028	          0.40166386	          0.30605405	
          7.99000000	          1.48404108	          0.36588503	          0.28814428	
          8.00000000	          1.48700279	          0.32982196	          0.26810081	
          8.01000000	          1.48849071	          0.29372879	          0.24630782	
          8.02000000	          1.48857177	          0.25793248	          0.22314440	
          8.03000000	          1.48724330	          0.22298694	          0.19893876	
          8.04000000	          1.48452219	          0.18931268	          0.17405817	
          8.05000000	          1.48054164	          0.15716861	          0.14892886	
          8.06000000	          1.47548679	          0.12655496	          0.12400897	
          8.07000000	          1.46947103	          0.09760127	          0.09967381	
          8.08000000	          1.46252375	          0.07068358	          0.07618758	
          8.09000000	          1.45466951	          0.04595537	          0.05379021	
          8.10000000	          1.44595865	          0.02339058	          0.03271092	
          8.11000000	          1.43646344	          0.00289566	          0.01314855	
          8.12000000	          1.42625803	         -0.01559212	         -0.00474870	
          8.13000000	          1.41542511	         -0.03203854	         -0.02087765	
          8.14000000	          1.40407125	         -0.04648061	         -0.03515237	
          8.15000000	          1.39232393	         -0.05904098	         -0.04749923	
          8.16000000	          1.38032631	         -0.06987115	         -0.05785858	
          8.17000000	          1.36823430	         -0.07912233	         -0.06618275	
          8.18000000	          1.35621466	         -0.08693134	         -0.07243494	
          8.19000000	          1.34444219	         -0.09342953	         -0.07658865	
          8.20000000	          1.33309445	         -0.09874224	         -0.07863080	
          8.21000000	          1.32234577	         -0.10298787	         -0.07856880	
          8.22000000	          1.31236282	         -0.10628884	         -0.07643742	
          8.23000000	          1.30330014	         -0.10876792	         -0.07230355	
          8.24000000	          1.29529747	         -0.11054599	         -0.06626745	
          8.25000000	          1.28847880	         -0.11174341	         -0.05846073	
          8.26000000	          1.28295144	         -0.11246998	         -0.04904139	
          8.27000000	          1.27880492	         -0.11281959	         -0.03818555	
          8.28000000	          1.27610809	         -0.11286108	         -0.02607877	
          8.29000000	          1.27490502	         -0.11262959	         -0.01290874	
          8.30000000	          1.27521112	         -0.11212948	          0.00114010	
          8.31000000	          1.27701059	         -0.11133903	          0.01588857	
          8.32000000	          1.28025681	         -0.11022264	          0.03116279	
          8.33000000	          1.28487543	         -0.10874835	          0.04679351	
          8.34000000	          1.29076920	         -0.10690591	          0.06261386	
          8.35000000	          1.29782561	         -0.10472660	          0.07845904	
          8.36000000	          1.30592492	         -0.10229828	          0.09416776	
          8.37000000	          1.31494451	         -0.09977671	          0.10958163	
          8.38000000	          1.32476026	         -0.09739119	          0.12454439	
          8.39000000	          1.33524635	         -0.09543775	          0.13890106	
          8.40000000	          1.34627419	         -0.09426486	          0.15249654	
          8.41000000	          1.35771069	         -0.09425260	          0.16517463	
          8.42000000	          1.36941819	         -0.09578378	          0.17677685	
          8.43000000	          1.38125728	         -0.09922141	          0.18714332	
          8.44000000	          1.39309161	         -0.10488161	          0.19611509	
          8.45000000	          1.40479409	         -0.11300973	          0.20353853	
          8.46000000	          1.41625345	         -0.12376738	          0.20927193	
          8.47000000	          1.42737904	         -0.13722122	          0.21319299	
          8.48000000	          1.43810493	         -0.15334844	          0.21520717	
          8.49000000	          1.44838909	         -0.17204549	          0.21525506	
          8.50000000	          1.45820037	         -0.19314986	          0.21331701	
          8.51000000	          1.46752814	         -0.21643423	          0.20942148	
          8.52000000	          1.47636874	         -0.24163987	          0.20364358	
          8.53000000	          1.48471445	         -0.26848767	          0.19610352	
          8.54000000	          1.49255652	         -0.29667519	          0.18696617	
          8.55000000	          1.49987223	         -0.32588697	          0.17643171	
          8.56000000	          1.50662112	         -0.35577521	          0.16472658	
          8.57000000	          1.51274401	         -0.38593865	          0.15209376	
          8.58000000	          1.51816626	         -0.41588577	          0.13877976	
          8.59000000	          1.52280677	         -0.44502188	          0.12502438	
          8.60000000	          1.52658981	         -0.47264031	          0.11105249	
          8.61000000	          1.52945667	         -0.49792245	          0.09706841	
          8.62000000	          1.53136992	         -0.51994815	          0.08325060	
          8.63000000	          1.53231101	         -0.53772892	          0.06975053	
          8.64000000	          1.53227606	         -0.55025630	          0.05669413	
          8.65000000	          1.53127076	         -0.55656865	          0.04418428	
          8.66000000	          1.52930595	         -0.55583471	          0.03230328	
          8.67000000	          1.52639368	         -0.54745508	          0.02111627	
          8.68000000	          1.52254543	         -0.53117231	          0.01067583	
          8.69000000	          1.51777210	         -0.50715689	          0.00102577	
          8.70000000	          1.51208622	         -0.47605748	         -0.00779488	
          8.71000000	          1.50550514	         -0.43899167	         -0.01574933	
          8.72000000	          1.49805100	         -0.39747075	         -0.02280287	
          8.73000000	          1.48975554	         -0.35326198	         -0.02892637	
          8.74000000	          1.48066637	         -0.30822101	         -0.03410233	
          8.75000000	          1.47084696	         -0.26413539	         -0.03833062	
          8.76000000	          1.46037724	         -0.22258895	         -0.04163411	
          8.77000000	          1.44934757	         -0.18487980	         -0.04405948	
          8.78000000	          1.43785351	         -0.15197643	         -0.04567667	
          8.79000000	          1.42599546	         -0.12450437	         -0.04657792	
          8.80000000	          1.41387951	         -0.10275757	         -0.04687468	
          8.81000000	          1.40160463	         -0.08672017	         -0.04668944	
          8.82000000	          1.38927805	         -0.07610582	         -0.04615384	
          8.83000000	          1.37703107	         -0.07040463	         -0.04540864	
          8.84000000	          1.36500441	         -0.06892408	         -0.04459871	
          8.85000000	          1.35333688	         -0.07083797	         -0.04386959	
          8.86000000	          1.34215264	         -0.07522913	         -0.04335583	
          8.87000000	          1.33154062	         -0.08114382	         -0.04318366	
          8.88000000	          1.32153667	         -0.08764198	         -0.04347341	
          8.89000000	          1.31211981	         -0.09382437	         -0.04432856	
          8.90000000	          1.30321749	         -0.09885964	         -0.04583074	
          8.91000000	          1.29471958	         -0.10199880	         -0.04803558	
          8.92000000	          1.28649644	         -0.10257706	         -0.05096677	
          8.93000000	          1.27841596	         -0.10000644	         -0.05460990	
          8.94000000	          1.27035582	         -0.09376608	         -0.05890800	
          8.95000000	          1.26220875	         -0.08339546	         -0.06376036	
          8.96000000	          1.25387512	         -0.06849111	         -0.06902285	
          8.97000000	          1.24525920	         -0.04872042	         -0.07451715	
          8.98000000	          1.23627086	         -0.02384969	         -0.08004388	
          8.99000000	          1.22682466	          0.00623311	         -0.08539092	
          9.00000000	          1.21682374	          0.04150018	         -0.09034308	
          9.01000000	          1.20616039	          0.08176640	         -0.09469229	
          9.02000000	          1.19472980	          0.12667721	         -0.09824620	
          9.03000000	          1.18243690	          0.17570710	         -0.10083370	
          9.04000000	          1.16921199	          0.22816580	         -0.10230628	
          9.05000000	          1.15500874	          0.28321366	         -0.10254267	
          9.06000000	          1.13979400	          0.33988772	         -0.10145425	
          9.07000000	          1.12354724	          0.39713914	         -0.09898687	
          9.08000000	          1.10626084	          0.45388308	         -0.09512213	
          9.09000000	          1.08793518	          0.50906157	         -0.08988033	
          9.10000000	          1.06857207	          0.56171202	         -0.08332352	
          9.11000000	          1.04817346	          0.61102642	         -0.07555464	
          9.12000000	          1.02674338	          0.65639385	         -0.06671296	
          9.13000000	          1.00429274	          0.69740515	         -0.05696547	
          9.14000000	          0.98084585	          0.73380520	         -0.04649400	
          9.15000000	          0.95644493	          0.76542398	         -0.03548148	
          9.16000000	          0.93115247	          0.79209190	         -0.02409923	
